PathFileType	4	(X/Y/Z)	C:/Users/opensim2020/Desktop/walking_exp_matlab/subject01_walking14_straight_04.trc																																																																																																																												
DataRate	CameraRate	NumFrames	NumMarkers	Units	OrigDataRate	OrigDataStartFrame	OrigNumFrames																																																																																																																								
100	100	5	42	mm	100	2129	89																																																																																																																								
Frame#	Time	LFHD			RFHD			LBHD			RBHD			C7			T10			CLAV			STRN			RBAK			LSHO			LUPA			LELB			LFRM			LWRA			LWRB			LFIN			RSHO			RUPA			RELB			RFRM			RWRA			RWRB			RFIN			LASI			RASI			LPSI			RPSI			LTHI			LKNE			LTIB			LANK			LHEE			LTOE			RTHI			RKNE			RTIB			RANK			RHEE			RTOE			*39			*40			*41		
		X1	Y1	Z1	X2	Y2	Z2	X3	Y3	Z3	X4	Y4	Z4	X5	Y5	Z5	X6	Y6	Z6	X7	Y7	Z7	X8	Y8	Z8	X9	Y9	Z9	X10	Y10	Z10	X11	Y11	Z11	X12	Y12	Z12	X13	Y13	Z13	X14	Y14	Z14	X15	Y15	Z15	X16	Y16	Z16	X17	Y17	Z17	X18	Y18	Z18	X19	Y19	Z19	X20	Y20	Z20	X21	Y21	Z21	X22	Y22	Z22	X23	Y23	Z23	X24	Y24	Z24	X25	Y25	Z25	X26	Y26	Z26	X27	Y27	Z27	X28	Y28	Z28	X29	Y29	Z29	X30	Y30	Z30	X31	Y31	Z31	X32	Y32	Z32	X33	Y33	Z33	X34	Y34	Z34	X35	Y35	Z35	X36	Y36	Z36	X37	Y37	Z37	X38	Y38	Z38	X39	Y39	Z39	X40	Y40	Z40	X41	Y41	Z41	X42	Y42	Z42
																																																																																																																															
56	0.55	73.54865	1643.83325	1048.45654	130.80164	1648.11902	1147.33167	-33.7957	1612.31812	1105.27588	24.29987	1616.08472	1209.46729	-76.23107	1419.06519	1132.75403	-127.50874	1125.62207	1135.81421	67.62173	1345.62817	1127.28284	101.88733	1189.8717	1128.05872	-139.37901	1232.2218	1213.78455	0.54183	1382.10791	970.37372	-77.48005	1213.93494	886.10498	-135.36047	1078.22412	890.05548	-145.84985	965.81396	863.94592	-123.48083	826.8949	873.53961	-177.04156	847.38239	857.883	-168.71986	765.9538	839.51208	5.5166	1391.44922	1274.84949	-43.86647	1205.74329	1393.52136	-22.18847	1079.35938	1415.34692	77.40029	1000.31445	1426.0791	205.8535	967.66382	1378.09021	183.13982	938.57104	1421.5603	263.62079	913.58362	1411.25354	58.17526	918.95886	1041.83032	33.92736	918.49921	1258.09766	-131.89201	927.94775	1068.65662	-146.16354	941.6366	1210.63354	107.93827	598.84125	977.20758	143.53883	474.83563	1005.35791	155.22076	287.25101	1003.43536	221.32666	74.63319	1062.15906	198.19547	34.5081	1124.4884	364.8363	88.79863	1042.33362	-106.30777	604.64551	1310.6908	-147.02274	447.02487	1288.6449	-263.01593	312.06161	1289.04602	-359.91599	125.37659	1243.32056	-414.62909	110.45628	1190.01367	-245.20142	35.88045	1241.77002	114.6301	1682.35754	1129.26025	-1973.12317	1023.90131	3102.00098	-2012.55493	1022.12878	3140.73096
57	0.56	87.16826	1642.63611	1045.65515	144.19722	1647.06946	1144.32458	-20.09469	1610.98657	1102.50256	37.98055	1614.97375	1206.72754	-62.13882	1417.48621	1129.74805	-111.93596	1123.92041	1134.49036	81.84427	1344.54846	1124.79297	116.74265	1189.0144	1126.28076	-125.01351	1230.80127	1211.70349	14.52527	1380.23303	967.81488	-63.2569	1211.44873	884.28821	-120.81083	1075.87854	889.39838	-132.10942	963.67334	863.23279	-110.31823	824.72253	872.9989	-164.06743	845.37872	857.29053	-156.20107	763.61145	839.7489	19.46052	1390.57263	1272.62256	-30.47156	1205.23511	1391.71484	-8.7341	1079.03735	1414.18054	90.99068	1000.33038	1425.06909	219.43692	967.95557	1376.80115	196.90051	938.98328	1420.53149	277.54929	914.26843	1409.96021	74.15009	917.9054	1041.39954	49.36031	917.47992	1257.78125	-116.11186	926.51331	1067.31909	-130.84659	940.1203	1209.07446	125.95481	598.80994	979.27582	159.3981	473.64542	1006.10901	168.9133	285.24692	1004.58197	231.65604	71.8198	1064.09875	207.55939	32.53157	1126.2428	375.5867	84.44302	1045.30066	-91.18671	603.76849	1311.09302	-132.39137	445.86545	1289.75525	-252.43114	314.45157	1290.4115	-355.40576	130.69612	1245.3999	-409.93503	118.0694	1191.72192	-244.65698	35.91776	1241.96045	128.27567	1681.46912	1126.36243	-1973.03687	1023.50952	3102.07642	-2012.57874	1022.1507	3140.55151
58	0.57	100.69089	1641.49756	1042.6875	157.84651	1646.07056	1141.47717	-6.50851	1609.57373	1099.49121	51.57937	1613.75	1203.73169	-48.03872	1416.00586	1127.03845	-97.38795	1122.34167	1132.96082	96.16728	1343.58435	1122.36804	131.68002	1188.15552	1124.40088	-110.52752	1229.35071	1209.58459	28.6648	1378.37744	965.06177	-48.68121	1208.98926	882.40167	-106.22549	1073.58679	888.15887	-117.84531	961.37939	862.39813	-96.87828	822.22614	873.03931	-150.13406	843.1626	856.84271	-142.65137	761.16956	839.80267	33.53001	1389.50806	1269.74854	-17.22197	1204.65332	1389.5072	4.35775	1078.71008	1412.91809	104.1449	1000.13239	1423.89954	232.45334	967.61133	1375.53394	210.17206	938.90674	1419.50842	290.78635	914.17474	1408.83179	90.50099	916.98755	1040.74512	64.88922	916.42578	1257.17834	-100.02303	924.97089	1066.01086	-115.41693	938.59106	1207.52063	143.50485	598.8316	981.60474	175.24794	472.4082	1007.14233	181.87184	282.95834	1005.77753	239.94861	69.0609	1065.9082	213.55772	31.76596	1126.97424	384.16663	79.34162	1048.42407	-75.17285	602.49176	1311.58899	-116.60801	444.45673	1291.4397	-240.92656	316.72598	1291.66553	-349.59009	136.06541	1247.06335	-404.26541	126.27308	1193.43042	-244.04695	35.86666	1242.255	141.9411	1680.52893	1123.53418	-1973.19299	1023.39069	3101.9375	-2012.54187	1021.99927	3140.72559
59	0.58	114.19556	1640.33521	1039.51196	171.11337	1645.02478	1138.2428	7.00554	1608.06567	1096.43323	65.07803	1612.4447	1200.57446	-33.96729	1414.40417	1124.12793	-82.018	1120.50513	1131.203	110.5071	1342.5874	1119.70715	146.97638	1187.4248	1122.38745	-95.93961	1227.79773	1207.32593	42.848	1376.50183	962.16016	-34.11133	1206.52869	880.19836	-91.25323	1071.2218	886.23383	-102.85407	958.83368	861.45129	-82.14076	819.64423	872.83521	-135.39833	840.70074	856.59149	-128.07173	758.43726	839.91742	47.48969	1388.44116	1267.03271	-4.14223	1204.05786	1387.30579	17.18163	1078.35425	1411.49719	116.91082	999.67767	1422.81909	245.16591	966.80969	1374.44775	222.80017	938.2923	1418.55664	303.48926	913.32605	1407.87683	107.01707	916.01105	1039.87048	80.85059	915.33594	1256.4397	-83.83781	923.40045	1064.73413	-99.51679	937.21576	1206.02087	161.2607	598.68933	983.42609	191.22105	470.94052	1008.23425	194.1142	280.24908	1007.18695	246.98645	66.28887	1068.47717	217.21431	31.79523	1128.7749	391.67148	71.10143	1052.11462	-58.38153	601.1731	1312.27856	-99.80456	442.66327	1293.13586	-228.41685	319.00119	1293.03101	-343.14438	142.00485	1249.10925	-397.54968	134.95122	1195.17273	-243.51062	35.63509	1242.51282	155.10098	1679.37756	1120.27795	-1973.04956	1023.31726	3101.92236	-2012.57214	1021.96033	3140.58521
60	0.59	127.63379	1639.22205	1036.40747	184.51979	1644.26514	1135.19604	20.58489	1606.54199	1093.18091	78.5491	1611.16614	1197.5564	-20.25695	1413.25891	1121.55042	-65.94824	1118.52722	1129.12488	124.87844	1341.51868	1116.9325	162.2421	1186.77795	1120.32056	-81.36947	1226.10925	1204.86206	57.31516	1374.65735	959.09912	-19.26754	1204.03174	877.95337	-75.88152	1068.42114	884.66479	-87.28445	956.05884	860.45673	-66.52666	817.01575	872.64948	-119.74521	837.86279	855.97974	-112.44682	755.4707	839.99805	61.40676	1387.50049	1264.39478	8.8613	1203.47583	1385.0802	29.7118	1077.92712	1410.04553	129.25258	998.92542	1421.64893	257.3569	965.25177	1373.32629	234.94795	937.11401	1417.70386	315.58853	911.79572	1406.98254	123.07776	915.10223	1038.995	97.07964	914.18884	1255.42871	-67.96281	921.88464	1063.13928	-83.5107	935.93976	1204.62268	178.49478	597.7879	984.64795	206.60876	468.76505	1008.62433	205.93698	278.14462	1009.52863	251.72952	66.28289	1070.39319	219.06693	33.13091	1130.47888	396.33276	61.02925	1055.08716	-40.66128	599.43286	1312.86255	-82.05565	440.60849	1294.99048	-214.91595	321.54471	1294.62341	-335.52676	148.3147	1251.4823	-388.81656	144.08191	1197.00854	-242.26743	35.63647	1242.75659	168.34917	1678.26367	1117.13525	-1973.19275	1023.55914	3101.9458	-2012.43066	1022.11096	3140.80542
